<svg xmlns="http://www.w3.org/2000/svg" width="256" height="256" viewBox="0 0 256 256" shape-rendering="geometricPrecision">
  <defs>
    <marker id="arrowHeadMedium" markerWidth="3.5" markerHeight="6" refX="1.4" refY="2.42" orient="auto">
      <path d="M1 1 L2.414 2.414 L1 3.828 Z" fill="#0D2A45" stroke="#0D2A45" stroke-width=".5" stroke-linejoin="round" stroke-linecap="round"/>
    </marker>
  </defs>

  <rect width="256" height="256" fill="#F4F1EC"/>

  <!-- Grid lines -->
  <g stroke="#0D2A45" stroke-width="8" stroke-linecap="round" stroke-linejoin="square">
    <!-- verticals -->
    <line x1="16" y1="16" x2="16" y2="176"/>
    <line x1="60.8" y1="16" x2="60.8" y2="176"/>
    <line x1="105.6" y1="16" x2="105.6" y2="80"/>
    <line x1="105.6" y1="176" x2="105.6" y2="240"/>
    <line x1="150.4" y1="16" x2="150.4" y2="80"/>
    <line x1="150.4" y1="176" x2="150.4" y2="240"/>
    <line x1="195.2" y1="80" x2="195.2" y2="240"/>
    <line x1="240" y1="80" x2="240" y2="240"/>

    <!-- horizontals -->
    <line x1="16" y1="16" x2="155.4" y2="16"/>
    <line x1="16" y1="48" x2="150.4" y2="48"/>
    <line x1="16" y1="80" x2="240" y2="80"/>
    <line x1="16" y1="112" x2="60.8" y2="112"/>
    <line x1="195.2" y1="112" x2="240" y2="112"/>
    <line x1="16" y1="144" x2="60.8" y2="144"/>
    <line x1="195.2" y1="144" x2="240" y2="144"/>
    <line x1="16" y1="176" x2="240" y2="176"/>
    <line x1="105.6" y1="208" x2="240" y2="208"/>
    <line x1="105.6" y1="240" x2="240" y2="240"/>
  </g>

  <!-- Arrows -->
  <g stroke="#0D2A45" stroke-width="20" stroke-linecap="square" marker-end="url(#arrowHeadMedium)">
    <line x1="195" y1="58" x2="220" y2="33"/>
    <line x1="62" y1="199" x2="38" y2="223"/>
  </g>

  <!-- DT -->
  <text x="128" y="133" font-family="Baskerville, 'Times New Roman', serif" font-size="76.8" font-weight="800" text-anchor="middle" dominant-baseline="middle" fill="#D64236">DT</text>
</svg>
